/vscmnt/brussel_pixiu_data/_data_brussel/112/vsc11236/PredSimResults/SUBJ10opt3D/trackIG/worker_02.mot
version=1
nRows=5
nColumns=50
inDegrees=yes
endheader
                time	         pelvis_tilt	         pelvis_list	     pelvis_rotation	           pelvis_tx	           pelvis_ty	           pelvis_tz	       hip_flexion_r	     hip_adduction_r	      hip_rotation_r	        knee_angle_r	       ankle_angle_r	         mtp_angle_r	       hip_flexion_l	     hip_adduction_l	      hip_rotation_l	        knee_angle_l	       ankle_angle_l	         mtp_angle_l	    lumbar_extension	      lumbar_bending	     lumbar_rotation	 ercspn_r/activation	 intobl_r/activation	 extobl_r/activation	    abd_r/activation	    add_r/activation	hamstrings_r/activation	bifemsh_r/activation	glut_max_r/activation	iliopsoas_r/activation	rect_fem_r/activation	  vasti_r/activation	gastroc_r/activation	 soleus_r/activation	tib_ant_r/activation	 ercspn_l/activation	 intobl_l/activation	 extobl_l/activation	    abd_l/activation	    add_l/activation	hamstrings_l/activation	bifemsh_l/activation	glut_max_l/activation	iliopsoas_l/activation	rect_fem_l/activation	  vasti_l/activation	gastroc_l/activation	 soleus_l/activation	tib_ant_l/activation	
          0.00000000	         -0.19939717	         -2.75383450	          9.24926876	          0.00000000	          0.84416052	         -0.01940735	         22.60942662	          0.54279268	         -4.02878890	         -9.98052720	          1.17908847	          0.23955664	        -13.61498811	         -3.21143907	         -0.23449718	         -6.67833598	         11.66288243	         18.33401918	         -4.83483522	         -0.89382917	         -3.96865671	          0.11064581	          0.16694901	          0.01000001	          0.00999999	          0.15576315	          0.07321204	          0.11333230	          0.01217860	          0.07112586	          0.01000005	          0.01000000	          0.01535847	          0.01000006	          0.21645210	          0.05402563	          0.00999999	          0.01000000	          0.08401693	          0.01000001	          0.01000030	          0.17510369	          0.01000000	          0.21913919	          0.01000003	          0.00999999	          0.22911256	          0.22248999	          0.02026963	
          0.01435769	         -0.27096417	         -2.62948901	          8.91168307	          0.01234158	          0.84273924	         -0.01802383	         22.16708265	          0.75334573	         -3.74270500	        -10.57126798	          1.05150301	          0.23610595	        -13.82798558	         -3.15112677	         -1.09147795	         -7.86830924	         11.50372238	         19.64271290	         -4.55936237	         -0.52639727	         -4.35922192	          0.10142203	          0.17622120	          0.01000001	          0.01000000	          0.14652244	          0.06563959	          0.09144907	          0.01336395	          0.05739220	          0.01000001	          0.01000000	          0.01239292	          0.01000000	          0.24390550	          0.06267965	          0.00999999	          0.01000000	          0.06895560	          0.01000001	          0.01000045	          0.14129302	          0.01000000	          0.17682572	          0.01000005	          0.01000000	          0.21497693	          0.22394566	          0.01635578	
          0.02871538	         -0.33804779	         -2.52289292	          8.51491282	          0.02491795	          0.84156432	         -0.01652928	         21.71185408	          0.96765313	         -3.46279169	        -11.10376788	          0.77067844	          0.23248244	        -13.98712586	         -3.11192788	         -1.97499295	         -9.18435507	         11.19754193	         20.98286021	         -4.26605266	         -0.10650270	         -4.74209160	          0.09162956	          0.16265594	          0.01000001	          0.01000001	          0.13023247	          0.06685567	          0.07379124	          0.01105302	          0.04631037	          0.01000001	          0.02715824	          0.01000000	          0.01000000	          0.27658176	          0.06897394	          0.00999999	          0.01000000	          0.05564104	          0.01000001	          0.01000185	          0.11401083	          0.01000002	          0.14268253	          0.01000005	          0.01000000	          0.19649309	          0.22061768	          0.01319765	
          0.04307307	         -0.40066073	         -2.43431982	          8.05807928	          0.03762576	          0.84076069	         -0.01490735	         21.26858177	          1.19181561	         -3.25626042	        -11.63822831	          0.46196663	          0.22493636	        -14.03722823	         -3.09849933	         -2.87701210	        -10.70646722	         10.71981863	         22.34130093	         -3.96860688	          0.36043204	         -5.11418835	          0.08107147	          0.13124880	          0.01000001	          0.01018624	          0.10508666	          0.07307932	          0.05954294	          0.01082547	          0.03736832	          0.01000000	          0.05365326	          0.01000000	          0.01000000	          0.30292796	          0.07575952	          0.00999999	          0.01000000	          0.04489734	          0.01000001	          0.01491969	          0.09199654	          0.01100266	          0.11513203	          0.01000005	          0.01000001	          0.17550813	          0.21237701	          0.01064933	
          0.05743076	         -0.45861382	         -2.35883507	          7.54881682	          0.05040750	          0.84044079	         -0.01315484	         20.78937432	          1.42096675	         -3.13309217	        -12.12855313	          0.28823981	          0.21580200	        -13.93189203	         -3.11329867	         -3.80223642	        -12.50088962	         10.04271684	         23.68739655	         -3.67264232	          0.85801938	         -5.47091113	          0.08051349	          0.10590604	          0.01000000	          0.03023905	          0.10145078	          0.07526487	          0.04804584	          0.01000020	          0.03015289	          0.01000001	          0.06841357	          0.01000000	          0.01000000	          0.30673045	          0.08947088	          0.00999999	          0.01000000	          0.03622814	          0.01000002	          0.01386856	          0.07423298	          0.01687352	          0.09290125	          0.01000004	          0.01000003	          0.14257918	          0.19956902	          0.01000000	
